<svg width="125" height="48" viewBox="0 0 125 48" fill="none" xmlns="http://www.w3.org/2000/svg">
<rect width="125" height="48" fill="black"/>
<path d="M15.386 31V18.238H23.612V20.938H18.23V23.638H22.964V26.23H18.248V31H15.386ZM33.2146 31.27C32.2906 31.27 31.4266 31.114 30.6226 30.802C29.8186 30.478 29.1166 30.028 28.5166 29.452C27.9286 28.876 27.4606 28.18 27.1126 27.364C26.7646 26.548 26.5906 25.642 26.5906 24.646C26.5906 23.65 26.7646 22.744 27.1126 21.928C27.4726 21.1 27.9526 20.398 28.5526 19.822C29.1526 19.234 29.8486 18.778 30.6406 18.454C31.4446 18.13 32.2906 17.968 33.1786 17.968C34.1386 17.968 34.9666 18.106 35.6626 18.382C36.3586 18.658 36.9466 19.012 37.4266 19.444C37.9066 19.864 38.2786 20.326 38.5426 20.83C38.8186 21.334 39.0106 21.814 39.1186 22.27L36.4366 23.116C36.3886 22.9 36.2926 22.654 36.1486 22.378C36.0166 22.102 35.8246 21.844 35.5726 21.604C35.3206 21.352 34.9966 21.148 34.6006 20.992C34.2166 20.824 33.7426 20.74 33.1786 20.74C32.7466 20.74 32.3146 20.818 31.8826 20.974C31.4506 21.13 31.0606 21.37 30.7126 21.694C30.3646 22.006 30.0826 22.408 29.8666 22.9C29.6506 23.392 29.5426 23.974 29.5426 24.646C29.5426 25.246 29.6446 25.78 29.8486 26.248C30.0526 26.716 30.3226 27.112 30.6586 27.436C31.0066 27.76 31.3966 28.006 31.8286 28.174C32.2726 28.342 32.7346 28.426 33.2146 28.426C33.7666 28.426 34.2406 28.348 34.6366 28.192C35.0326 28.024 35.3626 27.82 35.6266 27.58C35.8906 27.328 36.0946 27.064 36.2386 26.788C36.3946 26.512 36.5026 26.26 36.5626 26.032L39.2806 26.806C39.1726 27.25 38.9806 27.73 38.7046 28.246C38.4406 28.762 38.0626 29.248 37.5706 29.704C37.0906 30.148 36.4906 30.52 35.7706 30.82C35.0506 31.12 34.1986 31.27 33.2146 31.27ZM51.1149 31L45.8589 22.612V31H43.0329V18.238H46.4889L51.2769 25.996V18.238H54.1209V31H51.1149ZM61.5289 24.52V21.01H63.8329V24.52H67.2349V26.752H63.8329V30.262H61.5289V26.752H58.1089V24.52H61.5289ZM71.2423 31V18.238H79.4683V20.938H74.0863V23.638H78.8203V26.23H74.1043V31H71.2423ZM87.1247 26.248H86.1167V31H83.2727V18.238H88.3307C88.9547 18.238 89.5187 18.34 90.0227 18.544C90.5387 18.748 90.9767 19.03 91.3367 19.39C91.6967 19.75 91.9727 20.176 92.1647 20.668C92.3687 21.148 92.4707 21.67 92.4707 22.234C92.4707 23.098 92.2487 23.848 91.8047 24.484C91.3607 25.108 90.7427 25.558 89.9507 25.834L92.5427 31H89.4107L87.1247 26.248ZM87.7907 23.8C88.3787 23.8 88.8227 23.656 89.1227 23.368C89.4347 23.08 89.5907 22.708 89.5907 22.252C89.5907 21.772 89.4347 21.394 89.1227 21.118C88.8227 20.842 88.3787 20.704 87.7907 20.704H86.1167V23.8H87.7907ZM108.039 31V22.54L104.709 31H102.405L99.0755 22.648V31H96.3755V18.238H100.083L103.593 26.86L106.923 18.238H110.829V31H108.039Z" fill="white"/>
</svg>
